<?xml version="1.0" encoding="UTF-8"?>
<svg id="_レイヤー_1" data-name=" レイヤー 1" xmlns="http://www.w3.org/2000/svg" version="1.1" viewBox="0 0 27.2 26.2"><script xmlns=""/>
  <defs>
    <style>
      .cls-1 {
        fill: #fff000;
        fill-rule: evenodd;
        stroke-width: 0px;
      }
    </style>
  </defs>
  <path id="ico_nav_on.svg" data-name="ico nav on.svg" class="cls-1" d="M3.6,26h1.8v-1.9h-1.8v1.9ZM25.4,24.1h1.8v-1.9h-1.8v1.9ZM7.3,20.4v1.9h1.8v-1.9h-1.8ZM21.8,18.6h-1.8v1.9h-1.8v-1.9h1.8v-7.4h-1.8v1.9h-1.8v3.7h-3.6v-3.7h-1.8v-1.9h-1.8v5.6h-3.6v3.7h1.8v-1.9h3.6v1.9h1.8v1.9h-3.6v1.9h-1.8v1.9h14.5v-1.9h-1.8v-1.9h1.8v-1.9h1.8v-3.7h-1.8v1.9h-.1ZM18.1,24.1h-3.6v-1.9h3.6v1.9ZM25.4,14.9h1.8v-1.9h-1.8v1.9ZM3.6,13h-1.8v1.9h1.8v-1.9ZM12.7,13h3.6v-1.9h1.8v-1.9h-7.3v1.9h1.8v1.9h.1ZM3.6,11.1v-1.9h-1.8v-3.7H0v5.6h3.6ZM21.8,7.4v1.9h3.6v-1.9h-3.6ZM3.6,9.3h1.8v-1.9h-1.8v1.9ZM25.4,7.4h1.8v-1.9h-1.8v1.9ZM21.8,3.7h1.8v1.9h1.8V1.9h-1.8V0h-3.6v1.9h-1.8v1.9h1.8v3.7h1.8v-3.7h0ZM3.6,3.7h1.8v3.7h1.8v-3.7h1.8V0H3.6v1.9h-1.8v3.7h1.8v-1.9h0ZM14.5,0h-1.8v1.9h1.8V0Z"/>
</svg>