<?xml version="1.0" encoding="UTF-8"?>
<svg id="_レイヤー_1" data-name=" レイヤー 1" xmlns="http://www.w3.org/2000/svg" version="1.1" viewBox="0 0 27.2 26.2"><script xmlns=""/>
  <defs>
    <style>
      .cls-1 {
        fill: #fff;
        fill-rule: evenodd;
        stroke-width: 0px;
      }
    </style>
  </defs>
  <path id="ico_nav_off.svg" data-name="ico nav off.svg" class="cls-1" d="M6.4,20.8h0ZM20.8,13.5v-3.6h-1.8v-1.8h-1.8v-1.9h-7.2v1.8h1.8v3.6h-1.8v1.8h-1.8v-3.6h-1.8v3.7h-1.8v7.3h1.8v-1.8h3.6v1.8h1.8v1.8h-3.6v1.8h-1.8v1.8h14.4v-1.8h-1.8v-1.8h1.8v-1.8h1.8v-7.3s-1.8,0-1.8,0ZM15.4,9.8h1.8v1.8h1.8v1.8h-3.6v-3.6h0ZM11.8,15.3h3.6v3.6h-3.6s0-3.6,0-3.6ZM17.2,24.4h-3.6v-1.8h3.6v1.8ZM20.8,18.9h-1.8v1.8h-1.8v-3.6h3.6v1.8h0ZM10,8h0ZM10,8h-1.8v1.8h1.8v-1.8ZM8.2,9.8h0ZM8.2,22.6h0ZM6.4,20.8v1.8h1.8v-1.8s-1.8,0-1.8,0Z"/>
</svg>